<svg xmlns="http://www.w3.org/2000/svg" width="41" height="41" viewBox="0 0 41 41">
  <defs>
    <style>
      .cls-1 {
        fill: #2a2a2a;
        fill-rule: evenodd;
      }
    </style>
  </defs>
  <path id="icon50.svg" class="cls-1" d="M595.164,1424.32a5.525,5.525,0,0,0-3.451,5.03,2.554,2.554,0,0,0,2.556,2.57,0.85,0.85,0,1,1,0,1.7,4.264,4.264,0,0,1-3.858-2.44c-1.995,3.55-4.823,5.87-8.04,6.24a6.418,6.418,0,0,0,6.358,5.6h2.991a0.855,0.855,0,0,1,.733.42l2.564,4.27a0.856,0.856,0,0,1,.011.86,0.869,0.869,0,0,1-.744.43H568.645a0.866,0.866,0,0,1-.743-0.43,0.851,0.851,0,0,1,.011-0.86l2.563-4.27a0.855,0.855,0,0,1,.733-0.42H574.2a6.416,6.416,0,0,0,6.358-5.61c-3.19-.37-5.994-2.67-7.975-6.21a4.272,4.272,0,0,1-.833,1.17,4.225,4.225,0,0,1-3.02,1.25,0.85,0.85,0,1,1,0-1.7,2.556,2.556,0,0,0,2.557-2.57,5.526,5.526,0,0,0-3.452-5.03A11.227,11.227,0,0,1,561,1413.98v-0.86a5.128,5.128,0,0,1,9.566-2.56h21.868a5.128,5.128,0,0,1,9.566,2.56v0.86A11.227,11.227,0,0,1,595.164,1424.32Zm-25.622-6.07h0.049c-0.058-.56-0.057-1.57-0.055-3.42l0-1.91a3.418,3.418,0,0,0-6.83.2v0.86a9.526,9.526,0,0,0,5.8,8.77,7.2,7.2,0,0,1,1.484.84A31.409,31.409,0,0,1,569.542,1418.25Zm2.151,26.48-1.538,2.56h22.619l-1.538-2.56H571.693Zm7.482-1.71h4.579a8.167,8.167,0,0,1-2.289-2.79A8.077,8.077,0,0,1,579.175,1443.02Zm12.576-28.19,0-1.59a0.969,0.969,0,0,1-.009-0.12c0-.1,0-0.19.009-0.29v-0.56h-20.5c0,0.19,0,.39,0,0.58,0,0.09.008,0.18,0.008,0.27a0.969,0.969,0,0,1-.009.12c0,2.25,0,4.66,0,4.95,0,0.02,0,.04,0,0.06,0,9.66,4.582,17.51,10.214,17.51,5.674,0,10.29-7.85,10.29-17.51h0.054C591.748,1417.68,591.749,1416.66,591.751,1414.83Zm8.54-1.71a3.419,3.419,0,0,0-6.829-.23c0,2.37,0,5.03,0,5.31,0,0.02,0,.03,0,0.05a31.185,31.185,0,0,1-.45,5.33,7.123,7.123,0,0,1,1.479-.83,9.527,9.527,0,0,0,5.8-8.77v-0.86Zm-14.905,11.82,0.5,2.87a1.407,1.407,0,0,1-.318,1.16,1.473,1.473,0,0,1-1.782.35l-2.607-1.36-2.607,1.36a1.485,1.485,0,0,1-1.782-.35,1.407,1.407,0,0,1-.318-1.16l0.5-2.87-2.109-2.04a1.4,1.4,0,0,1-.366-1.46,1.445,1.445,0,0,1,1.168-.98l2.915-.42,1.3-2.61a1.452,1.452,0,0,1,2.6,0l1.3,2.61,2.915,0.42a1.429,1.429,0,0,1,1.168.98,1.4,1.4,0,0,1-.366,1.46Zm-1.89-3.38a1.455,1.455,0,0,1-1.09-.78l-1.229-2.46-1.229,2.46a1.454,1.454,0,0,1-1.09.78l-2.748.4,1.989,1.91a1.431,1.431,0,0,1,.416,1.27l-0.469,2.71,2.458-1.28a1.5,1.5,0,0,1,1.346,0l2.459,1.28-0.47-2.71a1.434,1.434,0,0,1,.416-1.27l1.989-1.91Z" transform="translate(-561 -1408)"/>
</svg>

