<svg xmlns="http://www.w3.org/2000/svg" width="38.688" height="42.156" viewBox="0 0 38.688 42.156">
  <defs>
    <style>
      .cls-1 {
        fill: #222;
        fill-rule: evenodd;
      }
    </style>
  </defs>
  <path id="psychologisе3.svg" class="cls-1" d="M709.223,381.759H693.387a0.738,0.738,0,1,1,0-1.475h15.836a1.736,1.736,0,0,0,1.734-1.735V351.2a1.736,1.736,0,0,0-1.734-1.734h-3.93v0.7a1.645,1.645,0,0,1-1.643,1.643h-8.892a1.646,1.646,0,0,1-1.644-1.643v-0.7h-3.929a1.735,1.735,0,0,0-1.734,1.734v10.389a0.738,0.738,0,0,1-1.475,0V351.2a3.213,3.213,0,0,1,3.209-3.209h3.929v-0.7a1.647,1.647,0,0,1,1.644-1.644h1.135v-0.5a3.311,3.311,0,1,1,6.622,0v0.5h1.135a1.646,1.646,0,0,1,1.643,1.644v0.7h3.93a3.212,3.212,0,0,1,3.208,3.209v27.351A3.213,3.213,0,0,1,709.223,381.759Zm-8.183-36.616a1.837,1.837,0,1,0-3.673,0v0.5h3.673v-0.5Zm2.778,3.583v-1.437a0.169,0.169,0,0,0-.168-0.169h-8.892a0.169,0.169,0,0,0-.169.169v2.875a0.168,0.168,0,0,0,.169.168h8.892a0.168,0.168,0,0,0,.168-0.168v-1.438Zm-21.427,22.311a4.573,4.573,0,1,1,4.571-4.573A4.578,4.578,0,0,1,682.391,371.037Zm0-7.671a3.1,3.1,0,1,0,3.1,3.1A3.1,3.1,0,0,0,682.391,363.366Zm6.727,8.431V352.424a0.737,0.737,0,1,1,1.474,0V371.8A0.737,0.737,0,0,1,689.118,371.8Zm-9.651.136a4.182,4.182,0,0,0,5.848,0,0.736,0.736,0,0,1,.513-0.207A5.206,5.206,0,0,1,691,377.534l-0.5,4.328a2.419,2.419,0,0,1-2.4,2.138h-11.4a2.419,2.419,0,0,1-2.4-2.138l-0.5-4.328a5.2,5.2,0,0,1,5.168-5.809A0.732,0.732,0,0,1,679.467,371.933Zm-3.3,2.517a3.737,3.737,0,0,0-.918,2.913l0.5,4.328a0.943,0.943,0,0,0,.937.834h1.128v-3.734a0.737,0.737,0,1,1,1.474,0v3.734h6.194v-3.734a0.737,0.737,0,1,1,1.474,0v3.734h1.128a0.943,0.943,0,0,0,.937-0.834l0.5-4.328a3.729,3.729,0,0,0-3.429-4.153,5.646,5.646,0,0,1-7.424,0A3.731,3.731,0,0,0,676.168,374.45Zm18.793-20.577a3.238,3.238,0,1,1-3.236,3.238A3.241,3.241,0,0,1,694.961,353.873Zm0,5a1.763,1.763,0,1,0-1.761-1.762A1.765,1.765,0,0,0,694.961,358.873Zm0,2.343a3.238,3.238,0,1,1-3.236,3.238A3.241,3.241,0,0,1,694.961,361.216Zm0,5a1.762,1.762,0,1,0-1.761-1.762A1.764,1.764,0,0,0,694.961,366.216Zm-3.236,5.581a3.236,3.236,0,1,1,3.236,3.237A3.24,3.24,0,0,1,691.725,371.8Zm3.236,1.762A1.762,1.762,0,1,0,693.2,371.8,1.764,1.764,0,0,0,694.961,373.559Zm10.9,0.92H699.2a0.738,0.738,0,1,1,0-1.475h6.658A0.738,0.738,0,0,1,705.862,374.479Zm0-2.856h-6.246a0.738,0.738,0,1,1,0-1.475h6.246A0.738,0.738,0,0,1,705.862,371.623Zm0-4.487H699.2a0.738,0.738,0,1,1,0-1.475h6.658A0.738,0.738,0,0,1,705.862,367.136Zm0-2.856h-6.246a0.738,0.738,0,1,1,0-1.475h6.246A0.738,0.738,0,0,1,705.862,364.28Zm0-7.343h-6.246a0.738,0.738,0,1,1,0-1.475h6.246A0.738,0.738,0,0,1,705.862,356.937Zm0,2.856H699.2a0.738,0.738,0,1,1,0-1.475h6.658A0.738,0.738,0,0,1,705.862,359.793Zm2.69-8.107a0.737,0.737,0,0,1,.737.738v24.893a0.737,0.737,0,0,1-.737.738H693.907a0.738,0.738,0,0,1,0-1.475h13.908V352.424A0.737,0.737,0,0,1,708.552,351.686Z" transform="translate(-673.75 -341.844)"/>
</svg>

